<svg xmlns="http://www.w3.org/2000/svg" viewBox="0 0 64 64"><title>SkinBoost</title><rect width="64" height="64" rx="16" fill="#0e2820"/><g transform="translate(32 32) scale(.84) translate(-301.394 -58.811)" fill="#c7df84"><path d="M299.591 33.4473C313.587 32.4555 325.742 42.9901 326.749 56.9865C327.757 70.9828 317.234 83.1489 303.24 84.1712C289.222 85.1949 277.035 74.6537 276.026 60.6361C275.017 46.6184 285.571 34.4409 299.591 33.4473ZM296.087 76.296C305.895 73.8705 315.763 61.6663 312.981 51.338C311.371 45.3712 307.052 42.1076 300.887 42.6784C290.533 45.0307 281.652 57.8005 284.151 68.3096C285.567 74.266 289.956 77.6426 296.087 76.296Z"/></g></svg>